<?xml version="1.0" standalone="no"?>
<!DOCTYPE svg PUBLIC "-//W3C//DTD SVG 20010904//EN"
 "http://www.w3.org/TR/2001/REC-SVG-20010904/DTD/svg10.dtd">
<svg version="1.0" xmlns="http://www.w3.org/2000/svg"
 width="2532.000000pt" height="852.000000pt" viewBox="0 0 2532.000000 852.000000"
 preserveAspectRatio="xMidYMid meet">

<g transform="translate(0.000000,852.000000) scale(0.100000,-0.100000)"
fill="#000000" stroke="none">
<path d="M5315 8504 c-113 -12 -326 -48 -434 -74 -235 -58 -577 -188 -843
-321 -833 -417 -1696 -1197 -2233 -2019 -127 -193 -177 -281 -276 -484 -232
-472 -334 -850 -346 -1281 -6 -229 5 -312 62 -471 119 -335 423 -626 762 -731
84 -26 98 -27 293 -27 301 0 521 38 840 143 549 183 1013 475 1455 916 158
157 263 287 315 389 49 97 99 387 103 596 2 86 -1 102 -19 127 -15 19 -31 29
-55 31 -32 3 -36 0 -52 -37 -35 -79 -310 -347 -587 -570 -656 -531 -1180 -837
-1645 -963 -113 -30 -130 -32 -295 -32 -160 -1 -180 1 -232 22 -161 65 -260
200 -291 396 -14 88 4 307 38 466 91 421 348 931 725 1435 285 380 693 786
1099 1093 599 452 1342 802 1703 802 160 0 188 -90 84 -273 -71 -124 -168
-241 -365 -438 -252 -251 -472 -424 -660 -517 -64 -32 -87 -37 -156 -40 -68
-3 -84 -1 -104 15 -20 17 -22 22 -12 41 13 25 11 26 -24 10 -48 -22 -105 -178
-105 -289 0 -51 5 -65 43 -120 50 -74 143 -148 224 -179 72 -28 192 -37 276
-20 221 43 576 265 941 589 320 283 627 707 727 1001 58 172 43 349 -42 481
-69 106 -181 198 -322 264 -123 59 -173 68 -372 70 -99 2 -198 1 -220 -1z"/>
</g>
</svg>
